<?xml version="1.0" standalone="no"?>
<!DOCTYPE svg PUBLIC "-//W3C//DTD SVG 20010904//EN"
 "http://www.w3.org/TR/2001/REC-SVG-20010904/DTD/svg10.dtd">
<svg version="1.0" xmlns="http://www.w3.org/2000/svg"
 width="456.000000pt" height="456.000000pt" viewBox="0 0 456.000000 456.000000"
 preserveAspectRatio="xMidYMid meet">
<metadata>
Created by potrace 1.11, written by Peter Selinger 2001-2013
</metadata>
<g transform="translate(0.000000,456.000000) scale(0.100000,-0.100000)"
fill="#000000" stroke="none">
<path d="M2040 3642 c0 -7 -8 -12 -17 -11 -46 4 -74 -1 -67 -13 6 -10 4 -10
-8 0 -12 10 -18 10 -23 1 -6 -8 -10 -7 -16 2 -7 12 -9 12 -9 0 0 -7 -6 -11
-15 -8 -8 4 -17 2 -20 -3 -3 -5 -12 -7 -20 -3 -8 3 -15 0 -15 -7 0 -6 -4 -9
-8 -6 -4 3 -26 0 -48 -5 -21 -6 -46 -11 -54 -12 -8 -1 -21 -8 -28 -15 -8 -7
-18 -10 -23 -7 -5 4 -9 1 -9 -5 0 -6 -5 -8 -10 -5 -6 3 -17 -1 -26 -10 -9 -9
-29 -19 -45 -22 -16 -3 -27 -9 -24 -13 2 -4 -7 -5 -20 -2 -14 2 -25 0 -25 -5
0 -8 -14 -11 -57 -15 -6 -1 -9 -8 -5 -16 3 -10 1 -13 -7 -8 -6 4 -24 0 -39
-10 -15 -10 -30 -17 -34 -16 -5 1 -8 -2 -8 -8 0 -5 -7 -10 -15 -10 -8 0 -15
-5 -15 -11 0 -6 -7 -8 -16 -5 -8 3 -13 2 -10 -3 3 -4 -7 -14 -22 -22 -15 -8
-30 -18 -34 -24 -4 -5 -8 -6 -8 -2 0 5 -7 2 -15 -5 -37 -33 -50 -43 -52 -38
-2 3 -19 -7 -37 -22 -19 -16 -40 -28 -45 -28 -6 0 -11 -5 -11 -12 0 -6 -3 -8
-6 -5 -4 3 -15 -5 -26 -18 -11 -14 -23 -23 -27 -21 -4 3 -13 -4 -21 -14 -8
-10 -17 -17 -22 -14 -4 3 -5 -3 -1 -12 4 -11 2 -15 -4 -11 -6 4 -14 0 -17 -9
-3 -9 -11 -12 -18 -8 -7 5 -9 2 -5 -9 3 -9 0 -18 -9 -21 -8 -3 -14 -13 -14
-21 0 -9 -4 -14 -9 -11 -8 5 -25 -29 -22 -46 1 -5 -4 -8 -10 -8 -5 0 -8 -4 -4
-9 3 -6 0 -13 -8 -18 -7 -4 -13 -17 -13 -28 0 -11 -5 -19 -12 -18 -6 2 -9 -4
-6 -11 3 -8 0 -24 -6 -36 -10 -18 -9 -21 1 -15 8 6 10 4 3 -6 -4 -8 -10 -23
-12 -34 -2 -11 -5 -25 -6 -32 -1 -7 -5 -15 -9 -19 -3 -4 -2 -14 3 -24 5 -10 6
-21 2 -25 -11 -11 -9 -159 2 -167 7 -5 5 -8 -4 -8 -13 0 -13 -1 0 -10 12 -8
13 -11 1 -19 -9 -6 -10 -10 -2 -12 6 -2 13 -13 15 -24 2 -11 6 -27 8 -35 1 -8
-3 -14 -10 -15 -7 0 -17 -7 -22 -15 -7 -10 -10 -11 -10 -2 0 9 -7 8 -25 -4
-14 -9 -25 -13 -25 -9 0 4 -6 2 -13 -4 -8 -6 -17 -8 -20 -4 -4 3 -7 1 -7 -6 0
-8 -8 -11 -19 -8 -14 3 -18 1 -14 -9 4 -10 0 -12 -11 -8 -9 3 -16 1 -16 -5 0
-6 -3 -10 -7 -10 -21 3 -34 -2 -28 -11 4 -6 3 -10 -2 -9 -15 4 -63 -13 -63
-22 0 -5 -3 -8 -7 -8 -20 3 -34 -2 -28 -10 3 -6 -4 -8 -15 -6 -11 2 -20 0 -20
-5 0 -5 -16 -17 -36 -26 -20 -9 -38 -23 -41 -30 -2 -7 -10 -11 -18 -8 -7 3
-15 -2 -19 -11 -3 -9 -10 -13 -16 -10 -5 3 -10 -1 -10 -9 0 -9 -3 -15 -8 -14
-4 2 -19 -8 -32 -21 -14 -13 -18 -20 -10 -16 8 4 3 -4 -13 -19 -29 -29 -35
-41 -14 -31 6 4 4 0 -6 -8 -10 -9 -18 -18 -18 -21 1 -3 -6 -22 -14 -42 -8 -20
-15 -45 -15 -56 0 -12 -4 -17 -12 -12 -7 4 -10 4 -6 -1 4 -4 2 -15 -5 -23 -10
-13 -9 -14 3 -7 13 8 13 6 1 -8 -7 -9 -11 -23 -8 -31 3 -8 0 -20 -8 -26 -7 -6
-12 -20 -10 -31 2 -10 0 -19 -4 -19 -9 0 -10 -15 -10 -120 0 -39 4 -67 12 -72
7 -4 8 -8 4 -8 -4 0 -2 -10 5 -22 7 -13 11 -27 9 -33 -1 -5 1 -7 5 -3 4 4 17
-6 29 -22 12 -16 25 -27 28 -23 4 3 7 1 7 -5 0 -7 7 -12 15 -12 7 0 19 -8 24
-17 6 -10 11 -15 11 -10 0 4 11 0 25 -9 14 -9 25 -12 25 -8 0 5 4 5 8 -1 4 -5
18 -16 31 -23 19 -11 22 -11 15 0 -5 8 3 6 19 -5 19 -12 27 -14 27 -5 1 8 7 5
15 -6 11 -14 15 -16 15 -5 0 8 3 10 8 4 4 -5 16 -10 27 -10 11 1 37 -2 58 -6
20 -3 37 -2 37 3 0 5 9 4 20 -2 11 -6 20 -7 20 -3 0 4 29 8 65 8 43 -1 70 4
77 12 8 10 14 10 24 2 11 -9 14 -8 14 1 0 7 7 10 15 7 8 -4 17 -2 21 4 3 6 12
8 20 5 8 -3 14 -1 14 5 0 6 4 8 9 5 5 -4 11 -1 13 4 3 10 21 16 51 19 5 1 5 6
2 11 -4 6 -3 10 2 9 21 -4 44 2 39 10 -3 5 8 14 25 20 19 7 28 15 23 22 -4 7
-3 9 4 5 6 -3 17 3 25 14 7 11 17 17 20 13 4 -3 7 1 7 10 0 9 4 17 9 17 5 0
13 9 16 20 4 11 10 18 15 15 5 -3 7 3 5 14 -2 13 2 18 13 17 9 -2 17 -7 17
-12 1 -15 17 -59 24 -64 3 -3 15 -23 26 -45 12 -22 26 -40 31 -40 16 0 44 -32
36 -40 -4 -5 -1 -5 5 -1 7 4 21 2 30 -3 10 -6 15 -11 10 -11 -4 0 21 -29 55
-64 35 -34 66 -61 71 -59 4 2 7 -3 7 -12 0 -9 5 -13 10 -10 6 3 13 -1 16 -9 3
-9 12 -16 20 -16 8 0 14 -5 14 -11 0 -5 4 -8 9 -4 5 3 12 1 16 -5 4 -6 11 -7
17 -4 6 4 8 2 4 -4 -6 -9 21 -24 49 -27 6 0 9 -6 7 -13 -1 -7 1 -11 5 -11 26
4 43 -2 37 -13 -4 -7 -4 -10 1 -6 4 4 25 -2 46 -13 22 -11 39 -16 39 -13 0 4
8 -2 18 -13 15 -18 66 -39 85 -35 4 1 7 -5 7 -14 0 -8 4 -13 9 -9 5 3 16 -1
24 -9 8 -8 17 -13 19 -10 3 2 11 -2 18 -11 7 -8 21 -15 31 -15 11 0 19 -4 19
-10 0 -5 7 -10 15 -10 8 0 15 -5 15 -11 0 -5 4 -8 9 -4 6 3 25 -3 44 -14 19
-11 38 -17 41 -14 3 4 6 1 6 -5 0 -7 7 -12 15 -12 8 0 15 -5 15 -11 0 -5 4 -8
9 -4 5 3 12 1 16 -5 4 -6 10 -8 15 -5 4 3 13 -2 20 -10 7 -8 16 -12 21 -9 5 3
9 0 9 -6 0 -7 6 -10 14 -7 8 3 20 -1 27 -9 7 -8 18 -13 24 -10 7 2 18 -1 25
-7 10 -9 11 -9 6 0 -5 8 2 8 21 -2 15 -8 30 -10 33 -5 3 5 12 5 19 0 8 -4 20
-6 27 -3 6 2 15 -1 19 -7 5 -8 10 -8 20 0 9 8 15 8 20 0 3 -6 11 -7 18 -3 16
10 58 10 63 1 3 -5 10 -5 16 -2 9 6 97 14 186 18 17 0 32 3 32 6 0 3 23 6 51
5 28 0 54 5 59 10 5 6 31 10 58 10 28 0 48 3 45 8 -2 4 7 7 21 7 14 0 29 1 33
3 4 1 9 -20 11 -48 2 -27 9 -56 15 -64 10 -12 9 -13 -1 -7 -11 7 -11 4 0 -15
7 -13 18 -27 23 -31 6 -4 6 -8 2 -8 -4 0 1 -10 12 -22 11 -11 17 -26 14 -32
-3 -6 -3 -8 1 -4 9 8 56 -35 56 -51 0 -5 9 -13 20 -16 11 -3 20 -11 20 -16 0
-6 4 -7 10 -4 5 3 10 -1 10 -10 0 -9 5 -13 10 -10 6 3 10 1 10 -5 0 -6 4 -8
10 -5 5 3 10 2 10 -3 0 -5 15 -15 33 -22 17 -6 40 -16 51 -22 14 -7 16 -7 10
4 -6 10 -4 10 9 -1 24 -19 196 -19 208 0 7 12 9 11 9 -1 0 -13 1 -13 10 0 5 8
10 11 10 6 0 -4 11 -1 25 8 14 9 25 13 25 9 0 -5 5 0 11 9 5 9 16 15 23 12 7
-3 16 2 19 10 4 9 13 16 21 16 9 0 24 10 36 22 11 12 20 19 20 15 0 -4 16 10
35 32 19 21 35 44 35 50 0 7 4 10 9 7 11 -7 23 22 15 35 -3 5 0 9 6 9 6 0 8 5
5 10 -3 6 1 10 9 10 8 0 13 6 11 13 -3 6 1 30 9 52 8 22 12 48 11 57 -2 10 2
18 8 18 7 0 6 4 -3 10 -8 5 -10 10 -4 10 7 0 12 21 13 52 0 28 6 55 12 58 7 5
5 10 -6 14 -16 6 -16 8 -1 31 11 16 12 25 5 25 -8 0 -7 6 2 17 12 14 12 16 0
8 -11 -6 -13 -4 -8 7 3 9 0 21 -6 27 -8 8 -8 11 1 11 9 0 10 6 4 18 -4 9 -8
29 -7 44 0 16 -2 28 -5 28 -4 0 -7 7 -7 15 0 8 4 15 9 15 5 0 6 5 3 10 -4 6
-3 9 2 8 14 -4 53 13 53 23 0 6 5 7 10 4 6 -3 13 1 16 9 3 9 12 16 19 16 7 0
20 11 28 24 9 13 23 30 32 39 8 9 15 19 15 22 -1 10 27 34 33 29 3 -3 12 3 19
15 7 12 16 21 20 21 12 0 58 47 58 59 0 7 5 9 10 6 6 -3 10 -2 10 4 0 6 10 20
23 32 12 12 15 19 7 15 -9 -5 -8 -2 3 7 9 8 17 19 17 26 0 6 5 11 11 11 5 0 7
5 4 10 -3 6 -3 16 2 23 4 6 9 21 10 31 2 11 9 26 16 35 10 12 9 13 -3 6 -12
-7 -13 -6 -4 6 6 8 11 26 10 42 -1 15 1 27 4 27 4 0 6 10 4 23 -1 12 -3 22 -4
22 -1 0 -3 10 -4 22 -1 12 1 20 5 17 4 -2 7 16 6 40 -1 25 -4 43 -7 41 -4 -2
-7 2 -7 10 0 8 3 12 7 10 4 -2 6 12 4 33 -2 20 -4 37 -5 37 -1 0 -2 11 -3 25
-1 14 -5 30 -9 37 -4 6 -1 14 5 16 9 4 8 6 -3 6 -11 1 -15 10 -14 31 1 17 -2
30 -7 30 -4 0 -8 7 -8 15 0 8 -4 15 -10 15 -5 0 -7 7 -4 15 4 8 2 15 -3 15 -5
0 -10 14 -11 30 -1 17 -2 46 -3 65 0 19 -4 35 -9 35 -4 0 -7 8 -7 18 0 33 -3
43 -11 38 -5 -3 -8 10 -7 29 0 19 -1 32 -4 30 -7 -7 -31 45 -31 67 0 10 -4 16
-10 13 -5 -3 -10 3 -10 14 0 12 -5 21 -12 21 -6 0 -9 3 -5 6 6 7 5 8 -48 69
-19 22 -35 46 -35 53 0 7 -3 11 -7 9 -5 -3 -13 1 -20 8 -10 11 -10 15 0 18 8
4 8 6 -2 6 -12 1 -78 61 -67 61 3 0 -11 15 -29 34 -19 18 -35 36 -35 40 0 5
-13 20 -30 36 -16 15 -26 30 -23 34 3 3 1 6 -6 6 -11 0 -44 28 -111 93 -15 15
-31 27 -34 27 -3 0 -20 14 -38 30 -17 17 -37 30 -45 30 -8 0 -11 5 -8 10 3 6
-1 10 -9 10 -9 0 -16 5 -16 10 0 6 -9 10 -21 10 -11 0 -18 3 -16 8 5 8 -13 26
-30 29 -6 1 -28 14 -49 28 -21 14 -48 28 -61 31 -13 4 -23 10 -23 16 0 5 -4 6
-10 3 -5 -3 -10 -1 -10 6 0 7 -3 10 -6 6 -4 -3 -21 1 -38 10 -17 9 -40 18 -51
20 -11 2 -22 8 -23 13 -2 6 -8 8 -13 4 -5 -3 -9 0 -9 6 0 6 -4 8 -10 5 -5 -3
-10 -1 -10 5 0 6 -4 9 -8 6 -5 -3 -27 6 -50 19 -24 13 -40 20 -36 14 5 -9 -34
9 -46 21 -6 6 -27 11 -52 13 -10 1 -18 4 -18 7 0 9 -72 30 -82 24 -4 -3 -8 0
-8 6 0 6 -4 9 -9 5 -5 -3 -13 0 -16 6 -4 5 -13 8 -21 5 -8 -3 -14 -1 -14 3 0
5 -9 7 -20 4 -11 -3 -20 -1 -20 4 0 5 -10 9 -22 10 -56 2 -88 8 -88 16 0 5 -6
4 -13 -2 -8 -6 -17 -8 -21 -4 -11 11 -40 10 -48 -2 -5 -7 -8 -7 -8 0 0 9 -185
14 -215 5 -5 -1 -12 -1 -15 0 -15 7 -270 4 -270 -3 0 -6 -5 -6 -12 -1 -16 11
-39 11 -55 1 -7 -5 -13 -4 -13 2 0 7 -8 7 -27 0 -20 -7 -28 -6 -35 3 -6 11 -8
11 -8 0z"/>
</g>
</svg>
